<svg width="100" height="22" viewBox="0 0 100 22" fill="none" xmlns="http://www.w3.org/2000/svg">
<path d="M31.116 1.9V13.352C31.116 16.1147 30.3227 18.2333 28.736 19.708C27.168 21.164 24.9467 21.892 22.072 21.892C20.784 21.892 19.6173 21.7147 18.572 21.36C17.5453 21.0053 16.6773 20.5013 15.968 19.848C15.2587 20.5013 14.3813 21.0053 13.336 21.36C12.3093 21.7147 11.1427 21.892 9.836 21.892C6.98 21.892 4.75867 21.1547 3.172 19.68C1.58533 18.2053 0.792 16.096 0.792 13.352V1.9H6.336V13.184C6.336 14.584 6.616 15.62 7.176 16.292C7.75467 16.964 8.61333 17.3 9.752 17.3C10.8907 17.3 11.74 16.964 12.3 16.292C12.8787 15.62 13.168 14.584 13.168 13.184V1.9H18.712V13.184C18.712 14.584 19.0013 15.62 19.58 16.292C20.1587 16.964 21.0267 17.3 22.184 17.3C23.3227 17.3 24.172 16.964 24.732 16.292C25.292 15.62 25.572 14.584 25.572 13.184V1.9H31.116ZM50.1256 6.324V21.5H45.0576V19.988C44.0683 21.164 42.5749 21.752 40.5776 21.752C39.1963 21.752 37.9363 21.4347 36.7976 20.8C35.6776 20.1467 34.7816 19.2227 34.1096 18.028C33.4563 16.8333 33.1296 15.452 33.1296 13.884C33.1296 12.316 33.4563 10.944 34.1096 9.768C34.7816 8.57333 35.6776 7.65867 36.7976 7.024C37.9363 6.38933 39.1963 6.072 40.5776 6.072C42.3696 6.072 43.7789 6.59467 44.8056 7.64V6.324H50.1256ZM41.6976 17.524C42.6309 17.524 43.3963 17.2067 43.9936 16.572C44.5909 15.9187 44.8896 15.0227 44.8896 13.884C44.8896 12.764 44.5909 11.8867 43.9936 11.252C43.3963 10.6173 42.6309 10.3 41.6976 10.3C40.7643 10.3 39.9989 10.6173 39.4016 11.252C38.8043 11.8867 38.5056 12.764 38.5056 13.884C38.5056 15.0227 38.8043 15.9187 39.4016 16.572C39.9989 17.2067 40.7643 17.524 41.6976 17.524ZM58.8983 21.752C57.0317 21.752 55.5757 21.276 54.5303 20.324C53.5037 19.3533 52.9903 17.972 52.9903 16.18V0.723999H58.3103V15.9C58.3103 16.46 58.4503 16.8893 58.7303 17.188C59.029 17.4867 59.4397 17.636 59.9623 17.636C60.3917 17.636 60.793 17.5427 61.1663 17.356L61.3903 21.36C60.5877 21.6213 59.757 21.752 58.8983 21.752ZM68.6469 21.752C66.7803 21.752 65.3243 21.276 64.2789 20.324C63.2523 19.3533 62.7389 17.972 62.7389 16.18V0.723999H68.0589V15.9C68.0589 16.46 68.1989 16.8893 68.4789 17.188C68.7776 17.4867 69.1883 17.636 69.7109 17.636C70.1403 17.636 70.5416 17.5427 70.9149 17.356L71.1389 21.36C70.3363 21.6213 69.5056 21.752 68.6469 21.752ZM80.3341 17.692C81.0621 17.692 81.6874 17.5893 82.2101 17.384C82.7514 17.1787 83.2928 16.8427 83.8341 16.376L86.6061 19.288C85.1688 20.9307 83.0221 21.752 80.1661 21.752C78.3928 21.752 76.8341 21.416 75.4901 20.744C74.1461 20.072 73.1008 19.1387 72.3541 17.944C71.6261 16.7493 71.2621 15.396 71.2621 13.884C71.2621 12.3907 71.6261 11.056 72.3541 9.88C73.0821 8.68533 74.0808 7.752 75.3501 7.08C76.6381 6.408 78.0754 6.072 79.6621 6.072C81.1368 6.072 82.4808 6.38 83.6941 6.996C84.9261 7.59333 85.9061 8.48 86.6341 9.656C87.3621 10.8133 87.7261 12.1947 87.7261 13.8L76.8901 15.872C77.4688 17.0853 78.6168 17.692 80.3341 17.692ZM79.6901 9.852C78.7754 9.852 78.0288 10.1413 77.4501 10.72C76.8714 11.28 76.5448 12.092 76.4701 13.156L82.6301 11.952C82.4434 11.3173 82.0888 10.8133 81.5661 10.44C81.0434 10.048 80.4181 9.852 79.6901 9.852ZM99.3909 20.884C98.9429 21.164 98.3923 21.3787 97.7389 21.528C97.1043 21.6773 96.4229 21.752 95.6949 21.752C93.7163 21.752 92.1949 21.2667 91.1309 20.296C90.0856 19.3253 89.5629 17.8787 89.5629 15.956V2.936H94.8829V6.884H98.3269V10.86H94.8829V15.9C94.8829 16.46 95.0229 16.8893 95.3029 17.188C95.5829 17.4867 95.9656 17.636 96.4509 17.636C97.0669 17.636 97.6083 17.4773 98.0749 17.16L99.3909 20.884Z" fill="#0038D9"/>
</svg>
