<svg width="48" height="48" viewBox="0 0 48 48" fill="none" xmlns="http://www.w3.org/2000/svg">
<rect width="48" height="48" rx="10" fill="#F9F9F9"/>
<path fill-rule="evenodd" clip-rule="evenodd" d="M15.9126 21.6216L14.2859 15.5529L18.0206 12.0616L19.2006 16.4636V14.0503L23.8672 12.6236V15.2189L27.9246 13.2769L27.8786 13.9503L28.6852 10.8569H33.4299L31.5839 17.0103L32.7619 16.7089L31.3306 22.0516C31.4232 21.9616 31.5172 21.8709 31.6106 21.7783C31.7372 21.65 31.9008 21.5646 32.0785 21.5342C32.2561 21.5037 32.4389 21.5297 32.601 21.6085C32.7631 21.6873 32.8964 21.815 32.9822 21.9735C33.068 22.132 33.1019 22.3135 33.0792 22.4923L31.3472 36.3556C31.3069 36.6781 31.1502 36.9748 30.9065 37.1899C30.6628 37.405 30.3489 37.5237 30.0239 37.5236H17.7106C17.3856 37.5235 17.0719 37.4048 16.8284 37.1897C16.5848 36.9746 16.4282 36.678 16.3879 36.3556L14.6552 22.4956C14.6358 22.3392 14.6596 22.1804 14.7239 22.0365C14.7882 21.8926 14.8906 21.769 15.0201 21.6791C15.1495 21.5892 15.3011 21.5363 15.4584 21.5263C15.6157 21.5163 15.7727 21.5495 15.9126 21.6223V21.6216ZM28.9279 19.3683L30.8212 18.8003L29.5146 23.6749C28.7719 24.2796 28.0632 24.7749 27.3766 25.1596L28.9279 19.3683ZM25.7319 25.8809L26.4392 15.4656L24.7126 16.2916L24.0419 26.1649C24.6157 26.1497 25.1846 26.0541 25.7319 25.8809ZM20.5339 25.2196C21.2186 25.5889 21.8812 25.8509 22.5339 26.0043V14.4236L20.5339 15.0356V25.2189V25.2196ZM17.7246 23.2329C18.199 23.6394 18.6915 24.0242 19.2006 24.3863V21.6116L17.3079 14.5529L15.7812 15.9803L17.7246 23.2329ZM30.0766 17.3956L28.2352 17.8663L29.7152 12.1903H31.6379L30.0766 17.3956Z" fill="#FDA741"/>
</svg>
